<?xml version="1.0" encoding="utf-8"?>
<svg xmlns="http://www.w3.org/2000/svg" viewBox="0 0 500 500" xmlns:bx="https://boxy-svg.com" width="500px" height="500px"><defs><bx:export><bx:file format="svg" path="無題.svg"/></bx:export></defs><clipPath id="p.0"><path d="m0 0l960.0 0l0 720.0l-960.0 0l0 -720.0z" clip-rule="nonzero"/></clipPath><g clip-path="url(#p.0)" transform="matrix(1, 0, 0, 1, 4.725694, -114.364082)"><path fill="#cccccc" d="M 101.698 517.382 C 101.698 493.916 120.721 474.894 144.186 474.894 C 155.455 474.894 166.262 479.37 174.23 487.338 C 182.198 495.306 186.674 506.113 186.674 517.382 C 186.674 540.847 167.652 559.87 144.186 559.87 C 120.721 559.87 101.698 540.847 101.698 517.382 L 101.698 517.382 Z" fill-rule="evenodd"/><path fill="#cccccc" d="M 373.878 298.873 L 373.878 208.699 L 308.996 298.873 L 373.878 298.873 Z" fill-rule="evenodd"/><path fill="#cccccc" d="M 277.791 161.256 L 277.791 251.429 L 342.673 161.256 L 277.791 161.256 Z" fill-rule="evenodd"/><path fill="#cccccc" d="M 320.522 192.209 L 167.388 405.248 L 124.774 374.634 L 277.908 161.594 L 320.522 192.209 Z" fill-rule="evenodd"/><path fill="#cccccc" d="M 167.152 406.382 L 167.152 316.209 L 101.514 406.382 L 167.152 406.382 Z" fill-rule="evenodd"/><path fill="#cccccc" d="M 215.966 352.694 L 215.966 406.332 L 254.674 352.694 L 215.966 352.694 Z" fill-rule="evenodd"/><path fill="#cccccc" d="M 166.383 352.699 L 216.84 352.699 L 216.84 406.369 L 166.383 406.369 L 166.383 352.699 Z" fill-rule="evenodd"/><path fill="#cccccc" d="M 374.236 298.634 L 254.772 464.838 L 211.937 434.067 L 331.401 267.862 L 374.236 298.634 Z" fill-rule="evenodd"/><path fill="#cccccc" d="M 251.357 470.639 L 251.357 378.954 L 185.719 470.639 L 251.357 470.639 Z" fill-rule="evenodd"/><path fill="#cccccc" d="M 249.778 416.552 L 334.754 416.552 L 334.754 470.631 L 249.778 470.631 L 249.778 416.552 Z" fill-rule="evenodd"/><path fill="#cccccc" d="M 332.984 416.552 L 332.984 471.765 L 373.961 416.552 L 332.984 416.552 Z" fill-rule="evenodd"/><path fill="#cccccc" d="M 373.878 544.127 L 373.878 416.537 L 277.783 544.127 L 373.878 544.127 Z" fill-rule="evenodd"/><path fill="#cccccc" d="M 289.491 416.673 L 373.333 416.673 L 373.333 470.437 L 289.491 470.437 L 289.491 416.673 Z" fill-rule="evenodd"/></g></svg>